<svg width="131" height="205" viewBox="0 0 131 205" fill="none" xmlns="http://www.w3.org/2000/svg">
<g clip-path="url(#clip0_1_8)">
<path d="M4.704 49.848C5.92 49.848 6.97067 50.0773 7.856 50.536C8.752 50.984 9.43467 51.6293 9.904 52.472C10.384 53.3147 10.624 54.3067 10.624 55.448C10.624 56.5893 10.384 57.5813 9.904 58.424C9.43467 59.256 8.752 59.896 7.856 60.344C6.97067 60.7813 5.92 61 4.704 61H1.232V49.848H4.704ZM4.704 59.8C6.144 59.8 7.24267 59.4213 8 58.664C8.75733 57.896 9.136 56.824 9.136 55.448C9.136 54.0613 8.752 52.9787 7.984 52.2C7.22667 51.4213 6.13333 51.032 4.704 51.032H2.688V59.8H4.704ZM13.2965 50.808C13.0192 50.808 12.7845 50.712 12.5925 50.52C12.4005 50.328 12.3045 50.0933 12.3045 49.816C12.3045 49.5387 12.4005 49.304 12.5925 49.112C12.7845 48.92 13.0192 48.824 13.2965 48.824C13.5632 48.824 13.7872 48.92 13.9685 49.112C14.1605 49.304 14.2565 49.5387 14.2565 49.816C14.2565 50.0933 14.1605 50.328 13.9685 50.52C13.7872 50.712 13.5632 50.808 13.2965 50.808ZM14.0005 52.232V61H12.5445V52.232H14.0005ZM19.586 61.144C18.914 61.144 18.3113 61.032 17.778 60.808C17.2447 60.5733 16.8233 60.2533 16.514 59.848C16.2047 59.432 16.034 58.9573 16.002 58.424H17.506C17.5487 58.8613 17.7513 59.2187 18.114 59.496C18.4873 59.7733 18.9727 59.912 19.57 59.912C20.1247 59.912 20.562 59.7893 20.882 59.544C21.202 59.2987 21.362 58.9893 21.362 58.616C21.362 58.232 21.1913 57.9493 20.85 57.768C20.5087 57.576 19.9807 57.3893 19.266 57.208C18.6153 57.0373 18.082 56.8667 17.666 56.696C17.2607 56.5147 16.9087 56.2533 16.61 55.912C16.322 55.56 16.178 55.1013 16.178 54.536C16.178 54.088 16.3113 53.6773 16.578 53.304C16.8447 52.9307 17.2233 52.6373 17.714 52.424C18.2047 52.2 18.7647 52.088 19.394 52.088C20.3647 52.088 21.1487 52.3333 21.746 52.824C22.3433 53.3147 22.6633 53.9867 22.706 54.84H21.25C21.218 54.3813 21.0313 54.0133 20.69 53.736C20.3593 53.4587 19.9113 53.32 19.346 53.32C18.8233 53.32 18.4073 53.432 18.098 53.656C17.7887 53.88 17.634 54.1733 17.634 54.536C17.634 54.824 17.7247 55.064 17.906 55.256C18.098 55.4373 18.3327 55.5867 18.61 55.704C18.898 55.8107 19.2927 55.9333 19.794 56.072C20.4233 56.2427 20.9353 56.4133 21.33 56.584C21.7247 56.744 22.0607 56.9893 22.338 57.32C22.626 57.6507 22.7753 58.0827 22.786 58.616C22.786 59.096 22.6527 59.528 22.386 59.912C22.1193 60.296 21.7407 60.6 21.25 60.824C20.77 61.0373 20.2153 61.144 19.586 61.144ZM24.2974 56.6C24.2974 55.6933 24.4787 54.904 24.8414 54.232C25.204 53.5493 25.7054 53.0213 26.3454 52.648C26.996 52.2747 27.7374 52.088 28.5694 52.088C29.6467 52.088 30.532 52.3493 31.2254 52.872C31.9294 53.3947 32.3934 54.12 32.6174 55.048H31.0494C30.9 54.5147 30.6067 54.0933 30.1694 53.784C29.7427 53.4747 29.2094 53.32 28.5694 53.32C27.7374 53.32 27.0654 53.608 26.5534 54.184C26.0414 54.7493 25.7854 55.5547 25.7854 56.6C25.7854 57.656 26.0414 58.472 26.5534 59.048C27.0654 59.624 27.7374 59.912 28.5694 59.912C29.2094 59.912 29.7427 59.7627 30.1694 59.464C30.596 59.1653 30.8894 58.7387 31.0494 58.184H32.6174C32.3827 59.08 31.9134 59.8 31.2094 60.344C30.5054 60.8773 29.6254 61.144 28.5694 61.144C27.7374 61.144 26.996 60.9573 26.3454 60.584C25.7054 60.2107 25.204 59.6827 24.8414 59C24.4787 58.3173 24.2974 57.5173 24.2974 56.6ZM36.0161 49.16V61H34.5601V49.16H36.0161ZM37.9536 56.584C37.9536 55.688 38.135 54.904 38.4976 54.232C38.8603 53.5493 39.3563 53.0213 39.9856 52.648C40.6256 52.2747 41.335 52.088 42.1136 52.088C42.8816 52.088 43.5483 52.2533 44.1136 52.584C44.679 52.9147 45.1003 53.3307 45.3776 53.832V52.232H46.8496V61H45.3776V59.368C45.0896 59.88 44.6576 60.3067 44.0816 60.648C43.5163 60.9787 42.855 61.144 42.0976 61.144C41.319 61.144 40.615 60.952 39.9856 60.568C39.3563 60.184 38.8603 59.6453 38.4976 58.952C38.135 58.2587 37.9536 57.4693 37.9536 56.584ZM45.3776 56.6C45.3776 55.9387 45.2443 55.3627 44.9776 54.872C44.711 54.3813 44.3483 54.008 43.8896 53.752C43.4416 53.4853 42.9456 53.352 42.4016 53.352C41.8576 53.352 41.3616 53.48 40.9136 53.736C40.4656 53.992 40.1083 54.3653 39.8416 54.856C39.575 55.3467 39.4416 55.9227 39.4416 56.584C39.4416 57.256 39.575 57.8427 39.8416 58.344C40.1083 58.8347 40.4656 59.2133 40.9136 59.48C41.3616 59.736 41.8576 59.864 42.4016 59.864C42.9456 59.864 43.4416 59.736 43.8896 59.48C44.3483 59.2133 44.711 58.8347 44.9776 58.344C45.2443 57.8427 45.3776 57.2613 45.3776 56.6ZM50.0621 50.808C49.7848 50.808 49.5501 50.712 49.3581 50.52C49.1661 50.328 49.0701 50.0933 49.0701 49.816C49.0701 49.5387 49.1661 49.304 49.3581 49.112C49.5501 48.92 49.7848 48.824 50.0621 48.824C50.3288 48.824 50.5528 48.92 50.7341 49.112C50.9261 49.304 51.0221 49.5387 51.0221 49.816C51.0221 50.0933 50.9261 50.328 50.7341 50.52C50.5528 50.712 50.3288 50.808 50.0621 50.808ZM50.7661 52.232V61H49.3101V52.232H50.7661ZM63.7916 52.072C64.4743 52.072 65.0823 52.216 65.6156 52.504C66.149 52.7813 66.5703 53.2027 66.8796 53.768C67.189 54.3333 67.3436 55.0213 67.3436 55.832V61H65.9036V56.04C65.9036 55.1653 65.685 54.4987 65.2476 54.04C64.821 53.5707 64.2396 53.336 63.5036 53.336C62.7463 53.336 62.1436 53.5813 61.6956 54.072C61.2476 54.552 61.0236 55.2507 61.0236 56.168V61H59.5836V56.04C59.5836 55.1653 59.365 54.4987 58.9276 54.04C58.501 53.5707 57.9196 53.336 57.1836 53.336C56.4263 53.336 55.8236 53.5813 55.3756 54.072C54.9276 54.552 54.7036 55.2507 54.7036 56.168V61H53.2476V52.232H54.7036V53.496C54.9916 53.0373 55.3756 52.6853 55.8556 52.44C56.3463 52.1947 56.885 52.072 57.4716 52.072C58.2076 52.072 58.8583 52.2373 59.4236 52.568C59.989 52.8987 60.4103 53.384 60.6876 54.024C60.933 53.4053 61.3383 52.9253 61.9036 52.584C62.469 52.2427 63.0983 52.072 63.7916 52.072ZM77.732 56.28C77.732 56.5573 77.716 56.8507 77.684 57.16H70.676C70.7293 58.024 71.0227 58.7013 71.556 59.192C72.1 59.672 72.756 59.912 73.524 59.912C74.1533 59.912 74.676 59.768 75.092 59.48C75.5187 59.1813 75.8173 58.7867 75.988 58.296H77.556C77.3213 59.1387 76.852 59.8267 76.148 60.36C75.444 60.8827 74.5693 61.144 73.524 61.144C72.692 61.144 71.9453 60.9573 71.284 60.584C70.6333 60.2107 70.1213 59.6827 69.748 59C69.3747 58.3067 69.188 57.5067 69.188 56.6C69.188 55.6933 69.3693 54.8987 69.732 54.216C70.0947 53.5333 70.6013 53.0107 71.252 52.648C71.9133 52.2747 72.6707 52.088 73.524 52.088C74.356 52.088 75.092 52.2693 75.732 52.632C76.372 52.9947 76.8627 53.496 77.204 54.136C77.556 54.7653 77.732 55.48 77.732 56.28ZM76.228 55.976C76.228 55.4213 76.1053 54.9467 75.86 54.552C75.6147 54.1467 75.2787 53.8427 74.852 53.64C74.436 53.4267 73.972 53.32 73.46 53.32C72.724 53.32 72.0947 53.5547 71.572 54.024C71.06 54.4933 70.7667 55.144 70.692 55.976H76.228ZM81.1099 53.656C81.3659 53.1547 81.7285 52.7653 82.1979 52.488C82.6779 52.2107 83.2592 52.072 83.9419 52.072V53.576H83.5579C81.9259 53.576 81.1099 54.4613 81.1099 56.232V61H79.6539V52.232H81.1099V53.656ZM7.536 84.848V86.032H2.688V89.792H6.624V90.976H2.688V96H1.232V84.848H7.536ZM10.0465 85.808C9.76917 85.808 9.5345 85.712 9.3425 85.52C9.1505 85.328 9.0545 85.0933 9.0545 84.816C9.0545 84.5387 9.1505 84.304 9.3425 84.112C9.5345 83.92 9.76917 83.824 10.0465 83.824C10.3132 83.824 10.5372 83.92 10.7185 84.112C10.9105 84.304 11.0065 84.5387 11.0065 84.816C11.0065 85.0933 10.9105 85.328 10.7185 85.52C10.5372 85.712 10.3132 85.808 10.0465 85.808ZM10.7505 87.232V96H9.2945V87.232H10.7505ZM17.504 87.072C18.5707 87.072 19.4347 87.3973 20.096 88.048C20.7573 88.688 21.088 89.616 21.088 90.832V96H19.648V91.04C19.648 90.1653 19.4293 89.4987 18.992 89.04C18.5547 88.5707 17.9573 88.336 17.2 88.336C16.432 88.336 15.8187 88.576 15.36 89.056C14.912 89.536 14.688 90.2347 14.688 91.152V96H13.232V87.232H14.688V88.48C14.976 88.032 15.3653 87.6853 15.856 87.44C16.3573 87.1947 16.9067 87.072 17.504 87.072ZM22.9224 91.584C22.9224 90.688 23.1037 89.904 23.4664 89.232C23.829 88.5493 24.325 88.0213 24.9544 87.648C25.5944 87.2747 26.3037 87.088 27.0824 87.088C27.8504 87.088 28.517 87.2533 29.0824 87.584C29.6477 87.9147 30.069 88.3307 30.3464 88.832V87.232H31.8184V96H30.3464V94.368C30.0584 94.88 29.6264 95.3067 29.0504 95.648C28.485 95.9787 27.8237 96.144 27.0664 96.144C26.2877 96.144 25.5837 95.952 24.9544 95.568C24.325 95.184 23.829 94.6453 23.4664 93.952C23.1037 93.2587 22.9224 92.4693 22.9224 91.584ZM30.3464 91.6C30.3464 90.9387 30.213 90.3627 29.9464 89.872C29.6797 89.3813 29.317 89.008 28.8584 88.752C28.4104 88.4853 27.9144 88.352 27.3704 88.352C26.8264 88.352 26.3304 88.48 25.8824 88.736C25.4344 88.992 25.077 89.3653 24.8104 89.856C24.5437 90.3467 24.4104 90.9227 24.4104 91.584C24.4104 92.256 24.5437 92.8427 24.8104 93.344C25.077 93.8347 25.4344 94.2133 25.8824 94.48C26.3304 94.736 26.8264 94.864 27.3704 94.864C27.9144 94.864 28.4104 94.736 28.8584 94.48C29.317 94.2133 29.6797 93.8347 29.9464 93.344C30.213 92.8427 30.3464 92.2613 30.3464 91.6ZM38.5509 87.072C39.6175 87.072 40.4815 87.3973 41.1429 88.048C41.8042 88.688 42.1349 89.616 42.1349 90.832V96H40.6949V91.04C40.6949 90.1653 40.4762 89.4987 40.0389 89.04C39.6015 88.5707 39.0042 88.336 38.2469 88.336C37.4789 88.336 36.8655 88.576 36.4069 89.056C35.9589 89.536 35.7349 90.2347 35.7349 91.152V96H34.2789V87.232H35.7349V88.48C36.0229 88.032 36.4122 87.6853 36.9029 87.44C37.4042 87.1947 37.9535 87.072 38.5509 87.072ZM43.9693 91.6C43.9693 90.6933 44.1506 89.904 44.5133 89.232C44.8759 88.5493 45.3773 88.0213 46.0173 87.648C46.6679 87.2747 47.4093 87.088 48.2413 87.088C49.3186 87.088 50.2039 87.3493 50.8973 87.872C51.6013 88.3947 52.0653 89.12 52.2893 90.048H50.7213C50.5719 89.5147 50.2786 89.0933 49.8413 88.784C49.4146 88.4747 48.8813 88.32 48.2413 88.32C47.4093 88.32 46.7373 88.608 46.2253 89.184C45.7133 89.7493 45.4573 90.5547 45.4573 91.6C45.4573 92.656 45.7133 93.472 46.2253 94.048C46.7373 94.624 47.4093 94.912 48.2413 94.912C48.8813 94.912 49.4146 94.7627 49.8413 94.464C50.2679 94.1653 50.5613 93.7387 50.7213 93.184H52.2893C52.0546 94.08 51.5853 94.8 50.8813 95.344C50.1773 95.8773 49.2973 96.144 48.2413 96.144C47.4093 96.144 46.6679 95.9573 46.0173 95.584C45.3773 95.2107 44.8759 94.6827 44.5133 94C44.1506 93.3173 43.9693 92.5173 43.9693 91.6ZM54.984 85.808C54.7067 85.808 54.472 85.712 54.28 85.52C54.088 85.328 53.992 85.0933 53.992 84.816C53.992 84.5387 54.088 84.304 54.28 84.112C54.472 83.92 54.7067 83.824 54.984 83.824C55.2507 83.824 55.4747 83.92 55.656 84.112C55.848 84.304 55.944 84.5387 55.944 84.816C55.944 85.0933 55.848 85.328 55.656 85.52C55.4747 85.712 55.2507 85.808 54.984 85.808ZM55.688 87.232V96H54.232V87.232H55.688ZM62.4415 87.072C63.5082 87.072 64.3722 87.3973 65.0335 88.048C65.6948 88.688 66.0255 89.616 66.0255 90.832V96H64.5855V91.04C64.5855 90.1653 64.3668 89.4987 63.9295 89.04C63.4922 88.5707 62.8948 88.336 62.1375 88.336C61.3695 88.336 60.7562 88.576 60.2975 89.056C59.8495 89.536 59.6255 90.2347 59.6255 91.152V96H58.1695V87.232H59.6255V88.48C59.9135 88.032 60.3028 87.6853 60.7935 87.44C61.2948 87.1947 61.8442 87.072 62.4415 87.072ZM72.0199 87.088C72.7772 87.088 73.4385 87.2533 74.0039 87.584C74.5799 87.9147 75.0065 88.3307 75.2839 88.832V87.232H76.7559V96.192C76.7559 96.992 76.5852 97.7013 76.2439 98.32C75.9025 98.9493 75.4119 99.44 74.7719 99.792C74.1425 100.144 73.4065 100.32 72.5639 100.32C71.4119 100.32 70.4519 100.048 69.6839 99.504C68.9159 98.96 68.4625 98.2187 68.3239 97.28H69.7639C69.9239 97.8133 70.2545 98.24 70.7559 98.56C71.2572 98.8907 71.8599 99.056 72.5639 99.056C73.3639 99.056 74.0145 98.8053 74.5159 98.304C75.0279 97.8027 75.2839 97.0987 75.2839 96.192V94.352C74.9959 94.864 74.5692 95.2907 74.0039 95.632C73.4385 95.9733 72.7772 96.144 72.0199 96.144C71.2412 96.144 70.5319 95.952 69.8919 95.568C69.2625 95.184 68.7665 94.6453 68.4039 93.952C68.0412 93.2587 67.8599 92.4693 67.8599 91.584C67.8599 90.688 68.0412 89.904 68.4039 89.232C68.7665 88.5493 69.2625 88.0213 69.8919 87.648C70.5319 87.2747 71.2412 87.088 72.0199 87.088ZM75.2839 91.6C75.2839 90.9387 75.1505 90.3627 74.8839 89.872C74.6172 89.3813 74.2545 89.008 73.7959 88.752C73.3479 88.4853 72.8519 88.352 72.3079 88.352C71.7639 88.352 71.2679 88.48 70.8199 88.736C70.3719 88.992 70.0145 89.3653 69.7479 89.856C69.4812 90.3467 69.3479 90.9227 69.3479 91.584C69.3479 92.256 69.4812 92.8427 69.7479 93.344C70.0145 93.8347 70.3719 94.2133 70.8199 94.48C71.2679 94.736 71.7639 94.864 72.3079 94.864C72.8519 94.864 73.3479 94.736 73.7959 94.48C74.2545 94.2133 74.6172 93.8347 74.8839 93.344C75.1505 92.8427 75.2839 92.2613 75.2839 91.6ZM8.688 123.112C8.688 124.04 8.368 124.813 7.728 125.432C7.09867 126.04 6.13333 126.344 4.832 126.344H2.688V131H1.232V119.848H4.832C6.09067 119.848 7.04533 120.152 7.696 120.76C8.35733 121.368 8.688 122.152 8.688 123.112ZM4.832 125.144C5.64267 125.144 6.24 124.968 6.624 124.616C7.008 124.264 7.2 123.763 7.2 123.112C7.2 121.736 6.41067 121.048 4.832 121.048H2.688V125.144H4.832ZM11.9536 123.656C12.2096 123.155 12.5723 122.765 13.0416 122.488C13.5216 122.211 14.103 122.072 14.7856 122.072V123.576H14.4016C12.7696 123.576 11.9536 124.461 11.9536 126.232V131H10.4976V122.232H11.9536V123.656ZM17.2184 120.808C16.941 120.808 16.7064 120.712 16.5144 120.52C16.3224 120.328 16.2264 120.093 16.2264 119.816C16.2264 119.539 16.3224 119.304 16.5144 119.112C16.7064 118.92 16.941 118.824 17.2184 118.824C17.485 118.824 17.709 118.92 17.8904 119.112C18.0824 119.304 18.1784 119.539 18.1784 119.816C18.1784 120.093 18.0824 120.328 17.8904 120.52C17.709 120.712 17.485 120.808 17.2184 120.808ZM17.9224 122.232V131H16.4664V122.232H17.9224ZM23.6679 129.656L26.3879 122.232H27.9399L24.4999 131H22.8039L19.3639 122.232H20.9319L23.6679 129.656ZM28.8286 126.584C28.8286 125.688 29.01 124.904 29.3726 124.232C29.7353 123.549 30.2313 123.021 30.8606 122.648C31.5006 122.275 32.21 122.088 32.9886 122.088C33.7566 122.088 34.4233 122.253 34.9886 122.584C35.554 122.915 35.9753 123.331 36.2526 123.832V122.232H37.7246V131H36.2526V129.368C35.9646 129.88 35.5326 130.307 34.9566 130.648C34.3913 130.979 33.73 131.144 32.9726 131.144C32.194 131.144 31.49 130.952 30.8606 130.568C30.2313 130.184 29.7353 129.645 29.3726 128.952C29.01 128.259 28.8286 127.469 28.8286 126.584ZM36.2526 126.6C36.2526 125.939 36.1193 125.363 35.8526 124.872C35.586 124.381 35.2233 124.008 34.7646 123.752C34.3166 123.485 33.8206 123.352 33.2766 123.352C32.7326 123.352 32.2366 123.48 31.7886 123.736C31.3406 123.992 30.9833 124.365 30.7166 124.856C30.45 125.347 30.3166 125.923 30.3166 126.584C30.3166 127.256 30.45 127.843 30.7166 128.344C30.9833 128.835 31.3406 129.213 31.7886 129.48C32.2366 129.736 32.7326 129.864 33.2766 129.864C33.8206 129.864 34.3166 129.736 34.7646 129.48C35.2233 129.213 35.586 128.835 35.8526 128.344C36.1193 127.843 36.2526 127.261 36.2526 126.6ZM39.6411 126.6C39.6411 125.693 39.8225 124.904 40.1851 124.232C40.5478 123.549 41.0491 123.021 41.6891 122.648C42.3398 122.275 43.0811 122.088 43.9131 122.088C44.9905 122.088 45.8758 122.349 46.5691 122.872C47.2731 123.395 47.7371 124.12 47.9611 125.048H46.3931C46.2438 124.515 45.9505 124.093 45.5131 123.784C45.0865 123.475 44.5531 123.32 43.9131 123.32C43.0811 123.32 42.4091 123.608 41.8971 124.184C41.3851 124.749 41.1291 125.555 41.1291 126.6C41.1291 127.656 41.3851 128.472 41.8971 129.048C42.4091 129.624 43.0811 129.912 43.9131 129.912C44.5531 129.912 45.0865 129.763 45.5131 129.464C45.9398 129.165 46.2331 128.739 46.3931 128.184H47.9611C47.7265 129.08 47.2571 129.8 46.5531 130.344C45.8491 130.877 44.9691 131.144 43.9131 131.144C43.0811 131.144 42.3398 130.957 41.6891 130.584C41.0491 130.211 40.5478 129.683 40.1851 129C39.8225 128.317 39.6411 127.517 39.6411 126.6ZM57.4559 122.232L52.1759 135.128H50.6719L52.3999 130.904L48.8639 122.232H50.4799L53.2319 129.336L55.9519 122.232H57.4559ZM70.6411 123.112C70.6411 124.04 70.3211 124.813 69.6811 125.432C69.0518 126.04 68.0865 126.344 66.7851 126.344H64.6411V131H63.1851V119.848H66.7851C68.0438 119.848 68.9985 120.152 69.6491 120.76C70.3105 121.368 70.6411 122.152 70.6411 123.112ZM66.7851 125.144C67.5958 125.144 68.1931 124.968 68.5771 124.616C68.9611 124.264 69.1531 123.763 69.1531 123.112C69.1531 121.736 68.3638 121.048 66.7851 121.048H64.6411V125.144H66.7851ZM76.2748 131.144C75.4534 131.144 74.7068 130.957 74.0348 130.584C73.3734 130.211 72.8508 129.683 72.4668 129C72.0934 128.307 71.9068 127.507 71.9068 126.6C71.9068 125.704 72.0988 124.915 72.4828 124.232C72.8774 123.539 73.4108 123.011 74.0828 122.648C74.7548 122.275 75.5068 122.088 76.3388 122.088C77.1708 122.088 77.9228 122.275 78.5948 122.648C79.2668 123.011 79.7948 123.533 80.1788 124.216C80.5734 124.899 80.7708 125.693 80.7708 126.6C80.7708 127.507 80.5681 128.307 80.1628 129C79.7681 129.683 79.2294 130.211 78.5468 130.584C77.8641 130.957 77.1068 131.144 76.2748 131.144ZM76.2748 129.864C76.7974 129.864 77.2881 129.741 77.7468 129.496C78.2054 129.251 78.5734 128.883 78.8508 128.392C79.1388 127.901 79.2828 127.304 79.2828 126.6C79.2828 125.896 79.1441 125.299 78.8668 124.808C78.5894 124.317 78.2268 123.955 77.7788 123.72C77.3308 123.475 76.8454 123.352 76.3228 123.352C75.7894 123.352 75.2988 123.475 74.8508 123.72C74.4134 123.955 74.0614 124.317 73.7948 124.808C73.5281 125.299 73.3948 125.896 73.3948 126.6C73.3948 127.315 73.5228 127.917 73.7788 128.408C74.0454 128.899 74.3974 129.267 74.8348 129.512C75.2721 129.747 75.7521 129.864 76.2748 129.864ZM84.1411 119.16V131H82.6851V119.16H84.1411ZM87.3746 120.808C87.0973 120.808 86.8626 120.712 86.6706 120.52C86.4786 120.328 86.3826 120.093 86.3826 119.816C86.3826 119.539 86.4786 119.304 86.6706 119.112C86.8626 118.92 87.0973 118.824 87.3746 118.824C87.6413 118.824 87.8653 118.92 88.0466 119.112C88.2386 119.304 88.3346 119.539 88.3346 119.816C88.3346 120.093 88.2386 120.328 88.0466 120.52C87.8653 120.712 87.6413 120.808 87.3746 120.808ZM88.0786 122.232V131H86.6226V122.232H88.0786ZM90.0161 126.6C90.0161 125.693 90.1975 124.904 90.5601 124.232C90.9228 123.549 91.4241 123.021 92.0641 122.648C92.7148 122.275 93.4561 122.088 94.2881 122.088C95.3655 122.088 96.2508 122.349 96.9441 122.872C97.6481 123.395 98.1121 124.12 98.3361 125.048H96.7681C96.6188 124.515 96.3255 124.093 95.8881 123.784C95.4615 123.475 94.9281 123.32 94.2881 123.32C93.4561 123.32 92.7841 123.608 92.2721 124.184C91.7601 124.749 91.5041 125.555 91.5041 126.6C91.5041 127.656 91.7601 128.472 92.2721 129.048C92.7841 129.624 93.4561 129.912 94.2881 129.912C94.9281 129.912 95.4615 129.763 95.8881 129.464C96.3148 129.165 96.6081 128.739 96.7681 128.184H98.3361C98.1015 129.08 97.6321 129.8 96.9281 130.344C96.2241 130.877 95.3441 131.144 94.2881 131.144C93.4561 131.144 92.7148 130.957 92.0641 130.584C91.4241 130.211 90.9228 129.683 90.5601 129C90.1975 128.317 90.0161 127.517 90.0161 126.6ZM107.831 122.232L102.551 135.128H101.047L102.775 130.904L99.2389 122.232H100.855L103.607 129.336L106.327 122.232H107.831ZM8.096 154.848V156.032H5.056V166H3.6V156.032H0.544V154.848H8.096ZM17.8883 161.28C17.8883 161.557 17.8723 161.851 17.8403 162.16H10.8323C10.8856 163.024 11.1789 163.701 11.7123 164.192C12.2563 164.672 12.9123 164.912 13.6803 164.912C14.3096 164.912 14.8323 164.768 15.2483 164.48C15.6749 164.181 15.9736 163.787 16.1443 163.296H17.7123C17.4776 164.139 17.0083 164.827 16.3043 165.36C15.6003 165.883 14.7256 166.144 13.6803 166.144C12.8483 166.144 12.1016 165.957 11.4403 165.584C10.7896 165.211 10.2776 164.683 9.90425 164C9.53092 163.307 9.34425 162.507 9.34425 161.6C9.34425 160.693 9.52558 159.899 9.88825 159.216C10.2509 158.533 10.7576 158.011 11.4083 157.648C12.0696 157.275 12.8269 157.088 13.6803 157.088C14.5123 157.088 15.2483 157.269 15.8883 157.632C16.5283 157.995 17.0189 158.496 17.3603 159.136C17.7123 159.765 17.8883 160.48 17.8883 161.28ZM16.3843 160.976C16.3843 160.421 16.2616 159.947 16.0163 159.552C15.7709 159.147 15.4349 158.843 15.0083 158.64C14.5923 158.427 14.1283 158.32 13.6163 158.32C12.8803 158.32 12.2509 158.555 11.7283 159.024C11.2163 159.493 10.9229 160.144 10.8483 160.976H16.3843ZM21.2661 158.656C21.5221 158.155 21.8848 157.765 22.3541 157.488C22.8341 157.211 23.4155 157.072 24.0981 157.072V158.576H23.7141C22.0821 158.576 21.2661 159.461 21.2661 161.232V166H19.8101V157.232H21.2661V158.656ZM36.3229 157.072C37.0055 157.072 37.6135 157.216 38.1469 157.504C38.6802 157.781 39.1015 158.203 39.4109 158.768C39.7202 159.333 39.8749 160.021 39.8749 160.832V166H38.4349V161.04C38.4349 160.165 38.2162 159.499 37.7789 159.04C37.3522 158.571 36.7709 158.336 36.0349 158.336C35.2775 158.336 34.6749 158.581 34.2269 159.072C33.7789 159.552 33.5549 160.251 33.5549 161.168V166H32.1149V161.04C32.1149 160.165 31.8962 159.499 31.4589 159.04C31.0322 158.571 30.4509 158.336 29.7149 158.336C28.9575 158.336 28.3549 158.581 27.9069 159.072C27.4589 159.552 27.2349 160.251 27.2349 161.168V166H25.7789V157.232H27.2349V158.496C27.5229 158.037 27.9069 157.685 28.3869 157.44C28.8775 157.195 29.4162 157.072 30.0029 157.072C30.7389 157.072 31.3895 157.237 31.9549 157.568C32.5202 157.899 32.9415 158.384 33.2189 159.024C33.4642 158.405 33.8695 157.925 34.4349 157.584C35.0002 157.243 35.6295 157.072 36.3229 157.072ZM45.3673 166.144C44.6953 166.144 44.0926 166.032 43.5593 165.808C43.0259 165.573 42.6046 165.253 42.2953 164.848C41.9859 164.432 41.8153 163.957 41.7833 163.424H43.2873C43.3299 163.861 43.5326 164.219 43.8953 164.496C44.2686 164.773 44.7539 164.912 45.3513 164.912C45.9059 164.912 46.3433 164.789 46.6633 164.544C46.9833 164.299 47.1433 163.989 47.1433 163.616C47.1433 163.232 46.9726 162.949 46.6313 162.768C46.2899 162.576 45.7619 162.389 45.0473 162.208C44.3966 162.037 43.8633 161.867 43.4473 161.696C43.0419 161.515 42.6899 161.253 42.3913 160.912C42.1033 160.56 41.9593 160.101 41.9593 159.536C41.9593 159.088 42.0926 158.677 42.3593 158.304C42.6259 157.931 43.0046 157.637 43.4953 157.424C43.9859 157.2 44.5459 157.088 45.1753 157.088C46.1459 157.088 46.9299 157.333 47.5273 157.824C48.1246 158.315 48.4446 158.987 48.4873 159.84H47.0313C46.9993 159.381 46.8126 159.013 46.4713 158.736C46.1406 158.459 45.6926 158.32 45.1273 158.32C44.6046 158.32 44.1886 158.432 43.8793 158.656C43.5699 158.88 43.4153 159.173 43.4153 159.536C43.4153 159.824 43.5059 160.064 43.6873 160.256C43.8793 160.437 44.1139 160.587 44.3913 160.704C44.6793 160.811 45.0739 160.933 45.5753 161.072C46.2046 161.243 46.7166 161.413 47.1113 161.584C47.5059 161.744 47.8419 161.989 48.1193 162.32C48.4073 162.651 48.5566 163.083 48.5673 163.616C48.5673 164.096 48.4339 164.528 48.1673 164.912C47.9006 165.296 47.5219 165.6 47.0313 165.824C46.5513 166.037 45.9966 166.144 45.3673 166.144ZM58.7123 166.144C57.8909 166.144 57.1443 165.957 56.4723 165.584C55.8109 165.211 55.2883 164.683 54.9043 164C54.5309 163.307 54.3443 162.507 54.3443 161.6C54.3443 160.704 54.5363 159.915 54.9203 159.232C55.3149 158.539 55.8483 158.011 56.5203 157.648C57.1923 157.275 57.9443 157.088 58.7763 157.088C59.6083 157.088 60.3603 157.275 61.0323 157.648C61.7043 158.011 62.2323 158.533 62.6163 159.216C63.0109 159.899 63.2083 160.693 63.2083 161.6C63.2083 162.507 63.0056 163.307 62.6003 164C62.2056 164.683 61.6669 165.211 60.9843 165.584C60.3016 165.957 59.5443 166.144 58.7123 166.144ZM58.7123 164.864C59.2349 164.864 59.7256 164.741 60.1843 164.496C60.6429 164.251 61.0109 163.883 61.2883 163.392C61.5763 162.901 61.7203 162.304 61.7203 161.6C61.7203 160.896 61.5816 160.299 61.3043 159.808C61.0269 159.317 60.6643 158.955 60.2163 158.72C59.7683 158.475 59.2829 158.352 58.7603 158.352C58.2269 158.352 57.7363 158.475 57.2883 158.72C56.8509 158.955 56.4989 159.317 56.2323 159.808C55.9656 160.299 55.8323 160.896 55.8323 161.6C55.8323 162.315 55.9603 162.917 56.2163 163.408C56.4829 163.899 56.8349 164.267 57.2723 164.512C57.7096 164.747 58.1896 164.864 58.7123 164.864ZM68.6906 158.432H66.8506V166H65.3946V158.432H64.2586V157.232H65.3946V156.608C65.3946 155.627 65.6453 154.912 66.1466 154.464C66.6586 154.005 67.4746 153.776 68.5946 153.776V154.992C67.9546 154.992 67.5013 155.12 67.2346 155.376C66.9786 155.621 66.8506 156.032 66.8506 156.608V157.232H68.6906V158.432ZM78.1899 166.112C77.4539 166.112 76.7925 165.984 76.2059 165.728C75.6299 165.461 75.1765 165.099 74.8459 164.64C74.5152 164.171 74.3445 163.632 74.3339 163.024H75.8859C75.9392 163.547 76.1525 163.989 76.5259 164.352C76.9099 164.704 77.4645 164.88 78.1899 164.88C78.8832 164.88 79.4272 164.709 79.8219 164.368C80.2272 164.016 80.4299 163.568 80.4299 163.024C80.4299 162.597 80.3125 162.251 80.0779 161.984C79.8432 161.717 79.5499 161.515 79.1979 161.376C78.8459 161.237 78.3712 161.088 77.7739 160.928C77.0379 160.736 76.4459 160.544 75.9979 160.352C75.5605 160.16 75.1819 159.861 74.8619 159.456C74.5525 159.04 74.3979 158.485 74.3979 157.792C74.3979 157.184 74.5525 156.645 74.8619 156.176C75.1712 155.707 75.6032 155.344 76.1579 155.088C76.7232 154.832 77.3685 154.704 78.0939 154.704C79.1392 154.704 79.9925 154.965 80.6539 155.488C81.3259 156.011 81.7045 156.704 81.7899 157.568H80.1899C80.1365 157.141 79.9125 156.768 79.5179 156.448C79.1232 156.117 78.6005 155.952 77.9499 155.952C77.3419 155.952 76.8459 156.112 76.4619 156.432C76.0779 156.741 75.8859 157.179 75.8859 157.744C75.8859 158.149 75.9979 158.48 76.2219 158.736C76.4565 158.992 76.7392 159.189 77.0699 159.328C77.4112 159.456 77.8859 159.605 78.4939 159.776C79.2299 159.979 79.8219 160.181 80.2699 160.384C80.7179 160.576 81.1019 160.88 81.4219 161.296C81.7419 161.701 81.9019 162.256 81.9019 162.96C81.9019 163.504 81.7579 164.016 81.4699 164.496C81.1819 164.976 80.7552 165.365 80.1899 165.664C79.6245 165.963 78.9579 166.112 78.1899 166.112ZM92.0445 161.28C92.0445 161.557 92.0285 161.851 91.9965 162.16H84.9885C85.0418 163.024 85.3352 163.701 85.8685 164.192C86.4125 164.672 87.0685 164.912 87.8365 164.912C88.4658 164.912 88.9885 164.768 89.4045 164.48C89.8312 164.181 90.1298 163.787 90.3005 163.296H91.8685C91.6338 164.139 91.1645 164.827 90.4605 165.36C89.7565 165.883 88.8818 166.144 87.8365 166.144C87.0045 166.144 86.2578 165.957 85.5965 165.584C84.9458 165.211 84.4338 164.683 84.0605 164C83.6872 163.307 83.5005 162.507 83.5005 161.6C83.5005 160.693 83.6818 159.899 84.0445 159.216C84.4072 158.533 84.9138 158.011 85.5645 157.648C86.2258 157.275 86.9832 157.088 87.8365 157.088C88.6685 157.088 89.4045 157.269 90.0445 157.632C90.6845 157.995 91.1752 158.496 91.5165 159.136C91.8685 159.765 92.0445 160.48 92.0445 161.28ZM90.5405 160.976C90.5405 160.421 90.4178 159.947 90.1725 159.552C89.9272 159.147 89.5912 158.843 89.1645 158.64C88.7485 158.427 88.2845 158.32 87.7725 158.32C87.0365 158.32 86.4072 158.555 85.8845 159.024C85.3725 159.493 85.0792 160.144 85.0045 160.976H90.5405ZM95.4224 158.656C95.6784 158.155 96.041 157.765 96.5104 157.488C96.9904 157.211 97.5717 157.072 98.2544 157.072V158.576H97.8704C96.2384 158.576 95.4224 159.461 95.4224 161.232V166H93.9664V157.232H95.4224V158.656ZM103.199 164.656L105.919 157.232H107.471L104.031 166H102.335L98.8951 157.232H100.463L103.199 164.656ZM109.656 155.808C109.379 155.808 109.144 155.712 108.952 155.52C108.76 155.328 108.664 155.093 108.664 154.816C108.664 154.539 108.76 154.304 108.952 154.112C109.144 153.92 109.379 153.824 109.656 153.824C109.923 153.824 110.147 153.92 110.328 154.112C110.52 154.304 110.616 154.539 110.616 154.816C110.616 155.093 110.52 155.328 110.328 155.52C110.147 155.712 109.923 155.808 109.656 155.808ZM110.36 157.232V166H108.904V157.232H110.36ZM112.297 161.6C112.297 160.693 112.479 159.904 112.841 159.232C113.204 158.549 113.705 158.021 114.345 157.648C114.996 157.275 115.737 157.088 116.569 157.088C117.647 157.088 118.532 157.349 119.225 157.872C119.929 158.395 120.393 159.12 120.617 160.048H119.049C118.9 159.515 118.607 159.093 118.169 158.784C117.743 158.475 117.209 158.32 116.569 158.32C115.737 158.32 115.065 158.608 114.553 159.184C114.041 159.749 113.785 160.555 113.785 161.6C113.785 162.656 114.041 163.472 114.553 164.048C115.065 164.624 115.737 164.912 116.569 164.912C117.209 164.912 117.743 164.763 118.169 164.464C118.596 164.165 118.889 163.739 119.049 163.184H120.617C120.383 164.08 119.913 164.8 119.209 165.344C118.505 165.877 117.625 166.144 116.569 166.144C115.737 166.144 114.996 165.957 114.345 165.584C113.705 165.211 113.204 164.683 112.841 164C112.479 163.317 112.297 162.517 112.297 161.6ZM130.56 161.28C130.56 161.557 130.544 161.851 130.512 162.16H123.504C123.557 163.024 123.851 163.701 124.384 164.192C124.928 164.672 125.584 164.912 126.352 164.912C126.981 164.912 127.504 164.768 127.92 164.48C128.347 164.181 128.645 163.787 128.816 163.296H130.384C130.149 164.139 129.68 164.827 128.976 165.36C128.272 165.883 127.397 166.144 126.352 166.144C125.52 166.144 124.773 165.957 124.112 165.584C123.461 165.211 122.949 164.683 122.576 164C122.203 163.307 122.016 162.507 122.016 161.6C122.016 160.693 122.197 159.899 122.56 159.216C122.923 158.533 123.429 158.011 124.08 157.648C124.741 157.275 125.499 157.088 126.352 157.088C127.184 157.088 127.92 157.269 128.56 157.632C129.2 157.995 129.691 158.496 130.032 159.136C130.384 159.765 130.56 160.48 130.56 161.28ZM129.056 160.976C129.056 160.421 128.933 159.947 128.688 159.552C128.443 159.147 128.107 158.843 127.68 158.64C127.264 158.427 126.8 158.32 126.288 158.32C125.552 158.32 124.923 158.555 124.4 159.024C123.888 159.493 123.595 160.144 123.52 160.976H129.056Z" fill="#22343D"/>
<path d="M3.78 20.16H8.48V22H1.5V8.1H3.78V20.16ZM20.4867 16.22C20.4867 16.6333 20.4601 17.0067 20.4067 17.34H11.9867C12.0534 18.22 12.3801 18.9267 12.9667 19.46C13.5534 19.9933 14.2734 20.26 15.1267 20.26C16.3534 20.26 17.2201 19.7467 17.7267 18.72H20.1867C19.8534 19.7333 19.2467 20.5667 18.3667 21.22C17.5001 21.86 16.4201 22.18 15.1267 22.18C14.0734 22.18 13.1267 21.9467 12.2867 21.48C11.4601 21 10.8067 20.3333 10.3267 19.48C9.86005 18.6133 9.62672 17.6133 9.62672 16.48C9.62672 15.3467 9.85339 14.3533 10.3067 13.5C10.7734 12.6333 11.4201 11.9667 12.2467 11.5C13.0867 11.0333 14.0467 10.8 15.1267 10.8C16.1667 10.8 17.0934 11.0267 17.9067 11.48C18.7201 11.9333 19.3534 12.5733 19.8067 13.4C20.2601 14.2133 20.4867 15.1533 20.4867 16.22ZM18.1067 15.5C18.0934 14.66 17.7934 13.9867 17.2067 13.48C16.6201 12.9733 15.8934 12.72 15.0267 12.72C14.2401 12.72 13.5667 12.9733 13.0067 13.48C12.4467 13.9733 12.1134 14.6467 12.0067 15.5H18.1067ZM27.1705 10.8C28.0238 10.8 28.7771 10.9733 29.4305 11.32C30.0971 11.6533 30.6171 12.0733 30.9905 12.58V10.98H33.2905V22.18C33.2905 23.1933 33.0771 24.0933 32.6505 24.88C32.2238 25.68 31.6038 26.3067 30.7905 26.76C29.9905 27.2133 29.0305 27.44 27.9105 27.44C26.4171 27.44 25.1771 27.0867 24.1905 26.38C23.2038 25.6867 22.6438 24.74 22.5105 23.54H24.7705C24.9438 24.1133 25.3105 24.5733 25.8705 24.92C26.4438 25.28 27.1238 25.46 27.9105 25.46C28.8305 25.46 29.5705 25.18 30.1305 24.62C30.7038 24.06 30.9905 23.2467 30.9905 22.18V20.34C30.6038 20.86 30.0771 21.3 29.4105 21.66C28.7571 22.0067 28.0105 22.18 27.1705 22.18C26.2105 22.18 25.3305 21.94 24.5305 21.46C23.7438 20.9667 23.1171 20.2867 22.6505 19.42C22.1971 18.54 21.9705 17.5467 21.9705 16.44C21.9705 15.3333 22.1971 14.3533 22.6505 13.5C23.1171 12.6467 23.7438 11.9867 24.5305 11.52C25.3305 11.04 26.2105 10.8 27.1705 10.8ZM30.9905 16.48C30.9905 15.72 30.8305 15.06 30.5105 14.5C30.2038 13.94 29.7971 13.5133 29.2905 13.22C28.7838 12.9267 28.2371 12.78 27.6505 12.78C27.0638 12.78 26.5171 12.9267 26.0105 13.22C25.5038 13.5 25.0905 13.92 24.7705 14.48C24.4638 15.0267 24.3105 15.68 24.3105 16.44C24.3105 17.2 24.4638 17.8667 24.7705 18.44C25.0905 19.0133 25.5038 19.4533 26.0105 19.76C26.5305 20.0533 27.0771 20.2 27.6505 20.2C28.2371 20.2 28.7838 20.0533 29.2905 19.76C29.7971 19.4667 30.2038 19.04 30.5105 18.48C30.8305 17.9067 30.9905 17.24 30.9905 16.48ZM35.5252 16.44C35.5252 15.3333 35.7518 14.3533 36.2052 13.5C36.6718 12.6467 37.2985 11.9867 38.0852 11.52C38.8852 11.04 39.7652 10.8 40.7252 10.8C41.5918 10.8 42.3452 10.9733 42.9852 11.32C43.6385 11.6533 44.1585 12.0733 44.5452 12.58V10.98H46.8452V22H44.5452V20.36C44.1585 20.88 43.6318 21.3133 42.9652 21.66C42.2985 22.0067 41.5385 22.18 40.6852 22.18C39.7385 22.18 38.8718 21.94 38.0852 21.46C37.2985 20.9667 36.6718 20.2867 36.2052 19.42C35.7518 18.54 35.5252 17.5467 35.5252 16.44ZM44.5452 16.48C44.5452 15.72 44.3852 15.06 44.0652 14.5C43.7585 13.94 43.3518 13.5133 42.8452 13.22C42.3385 12.9267 41.7918 12.78 41.2052 12.78C40.6185 12.78 40.0718 12.9267 39.5652 13.22C39.0585 13.5 38.6452 13.92 38.3252 14.48C38.0185 15.0267 37.8652 15.68 37.8652 16.44C37.8652 17.2 38.0185 17.8667 38.3252 18.44C38.6452 19.0133 39.0585 19.4533 39.5652 19.76C40.0852 20.0533 40.6318 20.2 41.2052 20.2C41.7918 20.2 42.3385 20.0533 42.8452 19.76C43.3518 19.4667 43.7585 19.04 44.0652 18.48C44.3852 17.9067 44.5452 17.24 44.5452 16.48ZM52.1198 7.2V22H49.8398V7.2H52.1198ZM64.8886 22.14C63.9553 22.14 63.1153 21.98 62.3686 21.66C61.6219 21.3267 61.0353 20.86 60.6086 20.26C60.1819 19.66 59.9686 18.96 59.9686 18.16H62.4086C62.4619 18.76 62.6953 19.2533 63.1086 19.64C63.5353 20.0267 64.1286 20.22 64.8886 20.22C65.6753 20.22 66.2886 20.0333 66.7286 19.66C67.1686 19.2733 67.3886 18.78 67.3886 18.18C67.3886 17.7133 67.2486 17.3333 66.9686 17.04C66.7019 16.7467 66.3619 16.52 65.9486 16.36C65.5486 16.2 64.9886 16.0267 64.2686 15.84C63.3619 15.6 62.6219 15.36 62.0486 15.12C61.4886 14.8667 61.0086 14.48 60.6086 13.96C60.2086 13.44 60.0086 12.7467 60.0086 11.88C60.0086 11.08 60.2086 10.38 60.6086 9.78C61.0086 9.18 61.5686 8.72 62.2886 8.4C63.0086 8.08 63.8419 7.92 64.7886 7.92C66.1353 7.92 67.2353 8.26 68.0886 8.94C68.9553 9.60667 69.4353 10.5267 69.5286 11.7H67.0086C66.9686 11.1933 66.7286 10.76 66.2886 10.4C65.8486 10.04 65.2686 9.86 64.5486 9.86C63.8953 9.86 63.3619 10.0267 62.9486 10.36C62.5353 10.6933 62.3286 11.1733 62.3286 11.8C62.3286 12.2267 62.4553 12.58 62.7086 12.86C62.9753 13.1267 63.3086 13.34 63.7086 13.5C64.1086 13.66 64.6553 13.8333 65.3486 14.02C66.2686 14.2733 67.0153 14.5267 67.5886 14.78C68.1753 15.0333 68.6686 15.4267 69.0686 15.96C69.4819 16.48 69.6886 17.18 69.6886 18.06C69.6886 18.7667 69.4953 19.4333 69.1086 20.06C68.7353 20.6867 68.1819 21.1933 67.4486 21.58C66.7286 21.9533 65.8753 22.14 64.8886 22.14ZM75.0389 12.84V18.94C75.0389 19.3533 75.1322 19.6533 75.3189 19.84C75.5189 20.0133 75.8522 20.1 76.3189 20.1H77.7189V22H75.9189C74.8922 22 74.1056 21.76 73.5589 21.28C73.0122 20.8 72.7389 20.02 72.7389 18.94V12.84H71.4389V10.98H72.7389V8.24H75.0389V10.98H77.7189V12.84H75.0389ZM89.8003 10.98V22H87.5203V20.7C87.1603 21.1533 86.687 21.5133 86.1003 21.78C85.527 22.0333 84.9136 22.16 84.2603 22.16C83.3936 22.16 82.6136 21.98 81.9203 21.62C81.2403 21.26 80.7003 20.7267 80.3003 20.02C79.9136 19.3133 79.7203 18.46 79.7203 17.46V10.98H81.9803V17.12C81.9803 18.1067 82.227 18.8667 82.7203 19.4C83.2136 19.92 83.887 20.18 84.7403 20.18C85.5936 20.18 86.267 19.92 86.7603 19.4C87.267 18.8667 87.5203 18.1067 87.5203 17.12V10.98H89.8003ZM97.4286 12.84H95.3886V22H93.0886V12.84H91.7886V10.98H93.0886V10.2C93.0886 8.93333 93.4219 8.01333 94.0886 7.44C94.7686 6.85333 95.8286 6.56 97.2686 6.56V8.46C96.5753 8.46 96.0886 8.59333 95.8086 8.86C95.5286 9.11333 95.3886 9.56 95.3886 10.2V10.98H97.4286V12.84ZM104.069 12.84H102.029V22H99.7292V12.84H98.4292V10.98H99.7292V10.2C99.7292 8.93333 100.063 8.01333 100.729 7.44C101.409 6.85333 102.469 6.56 103.909 6.56V8.46C103.216 8.46 102.729 8.59333 102.449 8.86C102.169 9.11333 102.029 9.56 102.029 10.2V10.98H104.069V12.84Z" fill="#22343D"/>
</g>
<defs>
<clipPath id="clip0_1_8">
<rect width="131" height="205" fill="white"/>
</clipPath>
</defs>
</svg>
