<svg width="118" height="205" viewBox="0 0 118 205" fill="none" xmlns="http://www.w3.org/2000/svg">
<path d="M7.824 58.52H2.96L2.064 61H0.528L4.56 49.912H6.24L10.256 61H8.72L7.824 58.52ZM7.408 57.336L5.392 51.704L3.376 57.336H7.408ZM13.4693 53.864C13.7679 53.3413 14.2053 52.9147 14.7812 52.584C15.3573 52.2533 16.0133 52.088 16.7493 52.088C17.5386 52.088 18.2479 52.2747 18.8773 52.648C19.5066 53.0213 20.0026 53.5493 20.3653 54.232C20.7279 54.904 20.9093 55.688 20.9093 56.584C20.9093 57.4693 20.7279 58.2587 20.3653 58.952C20.0026 59.6453 19.5012 60.184 18.8612 60.568C18.2319 60.952 17.5279 61.144 16.7493 61.144C15.9919 61.144 15.3253 60.9787 14.7493 60.648C14.1839 60.3173 13.7573 59.896 13.4693 59.384V61H12.0133V49.16H13.4693V53.864ZM19.4213 56.584C19.4213 55.9227 19.2879 55.3467 19.0213 54.856C18.7546 54.3653 18.3919 53.992 17.9333 53.736C17.4853 53.48 16.9893 53.352 16.4453 53.352C15.9119 53.352 15.4159 53.4853 14.9573 53.752C14.5093 54.008 14.1466 54.3867 13.8693 54.888C13.6026 55.3787 13.4693 55.9493 13.4693 56.6C13.4693 57.2613 13.6026 57.8427 13.8693 58.344C14.1466 58.8347 14.5093 59.2133 14.9573 59.48C15.4159 59.736 15.9119 59.864 16.4453 59.864C16.9893 59.864 17.4853 59.736 17.9333 59.48C18.3919 59.2133 18.7546 58.8347 19.0213 58.344C19.2879 57.8427 19.4213 57.256 19.4213 56.584ZM26.6498 61.144C25.8284 61.144 25.0818 60.9573 24.4098 60.584C23.7484 60.2107 23.2258 59.6827 22.8418 59C22.4684 58.3067 22.2818 57.5067 22.2818 56.6C22.2818 55.704 22.4738 54.9147 22.8578 54.232C23.2524 53.5387 23.7858 53.0107 24.4578 52.648C25.1298 52.2747 25.8818 52.088 26.7138 52.088C27.5458 52.088 28.2978 52.2747 28.9698 52.648C29.6418 53.0107 30.1698 53.5333 30.5538 54.216C30.9484 54.8987 31.1458 55.6933 31.1458 56.6C31.1458 57.5067 30.9431 58.3067 30.5378 59C30.1431 59.6827 29.6044 60.2107 28.9218 60.584C28.2391 60.9573 27.4818 61.144 26.6498 61.144ZM26.6498 59.864C27.1724 59.864 27.6631 59.7413 28.1218 59.496C28.5804 59.2507 28.9484 58.8827 29.2258 58.392C29.5138 57.9013 29.6578 57.304 29.6578 56.6C29.6578 55.896 29.5191 55.2987 29.2418 54.808C28.9644 54.3173 28.6018 53.9547 28.1538 53.72C27.7058 53.4747 27.2204 53.352 26.6978 53.352C26.1644 53.352 25.6738 53.4747 25.2258 53.72C24.7884 53.9547 24.4364 54.3173 24.1698 54.808C23.9031 55.2987 23.7698 55.896 23.7698 56.6C23.7698 57.3147 23.8978 57.9173 24.1538 58.408C24.4204 58.8987 24.7724 59.2667 25.2098 59.512C25.6471 59.7467 26.1271 59.864 26.6498 59.864ZM40.8361 52.232V61H39.3801V59.704C39.1028 60.152 38.7135 60.504 38.2121 60.76C37.7215 61.0053 37.1775 61.128 36.5801 61.128C35.8975 61.128 35.2841 60.9893 34.7401 60.712C34.1961 60.424 33.7641 59.9973 33.4441 59.432C33.1348 58.8667 32.9801 58.1787 32.9801 57.368V52.232H34.4201V57.176C34.4201 58.04 34.6388 58.7067 35.0761 59.176C35.5135 59.6347 36.1108 59.864 36.8681 59.864C37.6468 59.864 38.2601 59.624 38.7081 59.144C39.1561 58.664 39.3801 57.9653 39.3801 57.048V52.232H40.8361ZM45.0705 53.432V58.6C45.0705 59.0267 45.1612 59.3307 45.3425 59.512C45.5238 59.6827 45.8385 59.768 46.2865 59.768H47.3585V61H46.0465C45.2358 61 44.6278 60.8133 44.2225 60.44C43.8172 60.0667 43.6145 59.4533 43.6145 58.6V53.432H42.4785V52.232H43.6145V50.024H45.0705V52.232H47.3585V53.432H45.0705ZM54.8123 49.848V56.904C54.8123 57.896 55.0523 58.632 55.5323 59.112C56.0229 59.592 56.7003 59.832 57.5643 59.832C58.4176 59.832 59.0843 59.592 59.5643 59.112C60.0549 58.632 60.3003 57.896 60.3003 56.904V49.848H61.7563V56.888C61.7563 57.816 61.5696 58.6 61.1962 59.24C60.8229 59.8693 60.3163 60.3387 59.6763 60.648C59.0469 60.9573 58.3376 61.112 57.5483 61.112C56.7589 61.112 56.0443 60.9573 55.4043 60.648C54.7749 60.3387 54.2736 59.8693 53.9003 59.24C53.5376 58.6 53.3563 57.816 53.3563 56.888V49.848H54.8123ZM67.2891 61.144C66.6171 61.144 66.0145 61.032 65.4811 60.808C64.9478 60.5733 64.5265 60.2533 64.2171 59.848C63.9078 59.432 63.7371 58.9573 63.7051 58.424H65.2091C65.2518 58.8613 65.4545 59.2187 65.8171 59.496C66.1905 59.7733 66.6758 59.912 67.2731 59.912C67.8278 59.912 68.2651 59.7893 68.5851 59.544C68.9051 59.2987 69.0651 58.9893 69.0651 58.616C69.0651 58.232 68.8945 57.9493 68.5531 57.768C68.2118 57.576 67.6838 57.3893 66.9691 57.208C66.3185 57.0373 65.7851 56.8667 65.3691 56.696C64.9638 56.5147 64.6118 56.2533 64.3131 55.912C64.0251 55.56 63.8811 55.1013 63.8811 54.536C63.8811 54.088 64.0145 53.6773 64.2811 53.304C64.5478 52.9307 64.9265 52.6373 65.4171 52.424C65.9078 52.2 66.4678 52.088 67.0971 52.088C68.0678 52.088 68.8518 52.3333 69.4491 52.824C70.0465 53.3147 70.3665 53.9867 70.4091 54.84H68.9531C68.9211 54.3813 68.7345 54.0133 68.3931 53.736C68.0625 53.4587 67.6145 53.32 67.0491 53.32C66.5265 53.32 66.1105 53.432 65.8011 53.656C65.4918 53.88 65.3371 54.1733 65.3371 54.536C65.3371 54.824 65.4278 55.064 65.6091 55.256C65.8011 55.4373 66.0358 55.5867 66.3131 55.704C66.6011 55.8107 66.9958 55.9333 67.4971 56.072C68.1265 56.2427 68.6385 56.4133 69.0331 56.584C69.4278 56.744 69.7638 56.9893 70.0411 57.32C70.3291 57.6507 70.4785 58.0827 70.4891 58.616C70.4891 59.096 70.3558 59.528 70.0891 59.912C69.8225 60.296 69.4438 60.6 68.9531 60.824C68.4731 61.0373 67.9185 61.144 67.2891 61.144ZM6.816 90.256C7.22133 90.32 7.58933 90.4853 7.92 90.752C8.26133 91.0187 8.528 91.3493 8.72 91.744C8.92267 92.1387 9.024 92.56 9.024 93.008C9.024 93.5733 8.88 94.0853 8.592 94.544C8.304 94.992 7.88267 95.3493 7.328 95.616C6.784 95.872 6.13867 96 5.392 96H1.232V84.848H5.232C5.98933 84.848 6.63467 84.976 7.168 85.232C7.70133 85.4773 8.10133 85.8133 8.368 86.24C8.63467 86.6667 8.768 87.1467 8.768 87.68C8.768 88.3413 8.58667 88.8907 8.224 89.328C7.872 89.7547 7.40267 90.064 6.816 90.256ZM2.688 89.664H5.136C5.81867 89.664 6.34667 89.504 6.72 89.184C7.09333 88.864 7.28 88.4213 7.28 87.856C7.28 87.2907 7.09333 86.848 6.72 86.528C6.34667 86.208 5.808 86.048 5.104 86.048H2.688V89.664ZM5.264 94.8C5.98933 94.8 6.55467 94.6293 6.96 94.288C7.36533 93.9467 7.568 93.472 7.568 92.864C7.568 92.2453 7.35467 91.76 6.928 91.408C6.50133 91.0453 5.93067 90.864 5.216 90.864H2.688V94.8H5.264ZM12.5005 84.16V96H11.0445V84.16H12.5005ZM18.806 96.144C17.9847 96.144 17.238 95.9573 16.566 95.584C15.9047 95.2107 15.382 94.6827 14.998 94C14.6247 93.3067 14.438 92.5067 14.438 91.6C14.438 90.704 14.63 89.9147 15.014 89.232C15.4087 88.5387 15.942 88.0107 16.614 87.648C17.286 87.2747 18.038 87.088 18.87 87.088C19.702 87.088 20.454 87.2747 21.126 87.648C21.798 88.0107 22.326 88.5333 22.71 89.216C23.1047 89.8987 23.302 90.6933 23.302 91.6C23.302 92.5067 23.0993 93.3067 22.694 94C22.2993 94.6827 21.7607 95.2107 21.078 95.584C20.3953 95.9573 19.638 96.144 18.806 96.144ZM18.806 94.864C19.3287 94.864 19.8193 94.7413 20.278 94.496C20.7367 94.2507 21.1047 93.8827 21.382 93.392C21.67 92.9013 21.814 92.304 21.814 91.6C21.814 90.896 21.6753 90.2987 21.398 89.808C21.1207 89.3173 20.758 88.9547 20.31 88.72C19.862 88.4747 19.3767 88.352 18.854 88.352C18.3207 88.352 17.83 88.4747 17.382 88.72C16.9447 88.9547 16.5927 89.3173 16.326 89.808C16.0593 90.2987 15.926 90.896 15.926 91.6C15.926 92.3147 16.054 92.9173 16.31 93.408C16.5767 93.8987 16.9287 94.2667 17.366 94.512C17.8033 94.7467 18.2833 94.864 18.806 94.864ZM28.8324 87.088C29.5897 87.088 30.251 87.2533 30.8164 87.584C31.3924 87.9147 31.819 88.3307 32.0964 88.832V87.232H33.5684V96.192C33.5684 96.992 33.3977 97.7013 33.0564 98.32C32.715 98.9493 32.2244 99.44 31.5844 99.792C30.955 100.144 30.219 100.32 29.3764 100.32C28.2244 100.32 27.2644 100.048 26.4964 99.504C25.7284 98.96 25.275 98.2187 25.1364 97.28H26.5764C26.7364 97.8133 27.067 98.24 27.5684 98.56C28.0697 98.8907 28.6724 99.056 29.3764 99.056C30.1764 99.056 30.827 98.8053 31.3284 98.304C31.8404 97.8027 32.0964 97.0987 32.0964 96.192V94.352C31.8084 94.864 31.3817 95.2907 30.8164 95.632C30.251 95.9733 29.5897 96.144 28.8324 96.144C28.0537 96.144 27.3444 95.952 26.7044 95.568C26.075 95.184 25.579 94.6453 25.2164 93.952C24.8537 93.2587 24.6724 92.4693 24.6724 91.584C24.6724 90.688 24.8537 89.904 25.2164 89.232C25.579 88.5493 26.075 88.0213 26.7044 87.648C27.3444 87.2747 28.0537 87.088 28.8324 87.088ZM32.0964 91.6C32.0964 90.9387 31.963 90.3627 31.6964 89.872C31.4297 89.3813 31.067 89.008 30.6084 88.752C30.1604 88.4853 29.6644 88.352 29.1204 88.352C28.5764 88.352 28.0804 88.48 27.6324 88.736C27.1844 88.992 26.827 89.3653 26.5604 89.856C26.2937 90.3467 26.1604 90.9227 26.1604 91.584C26.1604 92.256 26.2937 92.8427 26.5604 93.344C26.827 93.8347 27.1844 94.2133 27.6324 94.48C28.0804 94.736 28.5764 94.864 29.1204 94.864C29.6644 94.864 30.1604 94.736 30.6084 94.48C31.067 94.2133 31.4297 93.8347 31.6964 93.344C31.963 92.8427 32.0964 92.2613 32.0964 91.6ZM0.688 125.416C0.688 124.328 0.933333 123.352 1.424 122.488C1.91467 121.613 2.58133 120.931 3.424 120.44C4.27733 119.949 5.22133 119.704 6.256 119.704C7.472 119.704 8.53333 119.997 9.44 120.584C10.3467 121.171 11.008 122.003 11.424 123.08H9.68C9.37067 122.408 8.92267 121.891 8.336 121.528C7.76 121.165 7.06667 120.984 6.256 120.984C5.47733 120.984 4.77867 121.165 4.16 121.528C3.54133 121.891 3.056 122.408 2.704 123.08C2.352 123.741 2.176 124.52 2.176 125.416C2.176 126.301 2.352 127.08 2.704 127.752C3.056 128.413 3.54133 128.925 4.16 129.288C4.77867 129.651 5.47733 129.832 6.256 129.832C7.06667 129.832 7.76 129.656 8.336 129.304C8.92267 128.941 9.37067 128.424 9.68 127.752H11.424C11.008 128.819 10.3467 129.645 9.44 130.232C8.53333 130.808 7.472 131.096 6.256 131.096C5.22133 131.096 4.27733 130.856 3.424 130.376C2.58133 129.885 1.91467 129.208 1.424 128.344C0.933333 127.48 0.688 126.504 0.688 125.416ZM17.4154 131.144C16.594 131.144 15.8474 130.957 15.1754 130.584C14.514 130.211 13.9914 129.683 13.6074 129C13.234 128.307 13.0474 127.507 13.0474 126.6C13.0474 125.704 13.2394 124.915 13.6234 124.232C14.018 123.539 14.5514 123.011 15.2234 122.648C15.8954 122.275 16.6474 122.088 17.4794 122.088C18.3114 122.088 19.0634 122.275 19.7354 122.648C20.4074 123.011 20.9354 123.533 21.3194 124.216C21.714 124.899 21.9114 125.693 21.9114 126.6C21.9114 127.507 21.7087 128.307 21.3034 129C20.9087 129.683 20.37 130.211 19.6874 130.584C19.0047 130.957 18.2474 131.144 17.4154 131.144ZM17.4154 129.864C17.938 129.864 18.4287 129.741 18.8874 129.496C19.346 129.251 19.714 128.883 19.9914 128.392C20.2794 127.901 20.4234 127.304 20.4234 126.6C20.4234 125.896 20.2847 125.299 20.0074 124.808C19.73 124.317 19.3674 123.955 18.9194 123.72C18.4714 123.475 17.986 123.352 17.4634 123.352C16.93 123.352 16.4394 123.475 15.9914 123.72C15.554 123.955 15.202 124.317 14.9354 124.808C14.6687 125.299 14.5354 125.896 14.5354 126.6C14.5354 127.315 14.6634 127.917 14.9194 128.408C15.186 128.899 15.538 129.267 15.9754 129.512C16.4127 129.747 16.8927 129.864 17.4154 129.864ZM28.0978 122.072C29.1644 122.072 30.0284 122.397 30.6898 123.048C31.3511 123.688 31.6818 124.616 31.6818 125.832V131H30.2418V126.04C30.2418 125.165 30.0231 124.499 29.5858 124.04C29.1484 123.571 28.5511 123.336 27.7938 123.336C27.0258 123.336 26.4124 123.576 25.9538 124.056C25.5058 124.536 25.2818 125.235 25.2818 126.152V131H23.8258V122.232H25.2818V123.48C25.5698 123.032 25.9591 122.685 26.4498 122.44C26.9511 122.195 27.5004 122.072 28.0978 122.072ZM35.8361 123.432V128.6C35.8361 129.027 35.9268 129.331 36.1081 129.512C36.2895 129.683 36.6041 129.768 37.0521 129.768H38.1241V131H36.8121C36.0015 131 35.3935 130.813 34.9881 130.44C34.5828 130.067 34.3801 129.453 34.3801 128.6V123.432H33.2441V122.232H34.3801V120.024H35.8361V122.232H38.1241V123.432H35.8361ZM39.3443 126.584C39.3443 125.688 39.5256 124.904 39.8883 124.232C40.2509 123.549 40.7469 123.021 41.3763 122.648C42.0163 122.275 42.7256 122.088 43.5043 122.088C44.2723 122.088 44.9389 122.253 45.5043 122.584C46.0696 122.915 46.4909 123.331 46.7683 123.832V122.232H48.2403V131H46.7683V129.368C46.4803 129.88 46.0483 130.307 45.4723 130.648C44.9069 130.979 44.2456 131.144 43.4883 131.144C42.7096 131.144 42.0056 130.952 41.3763 130.568C40.7469 130.184 40.2509 129.645 39.8883 128.952C39.5256 128.259 39.3443 127.469 39.3443 126.584ZM46.7683 126.6C46.7683 125.939 46.6349 125.363 46.3683 124.872C46.1016 124.381 45.7389 124.008 45.2803 123.752C44.8323 123.485 44.3363 123.352 43.7923 123.352C43.2483 123.352 42.7523 123.48 42.3043 123.736C41.8563 123.992 41.4989 124.365 41.2323 124.856C40.9656 125.347 40.8323 125.923 40.8323 126.584C40.8323 127.256 40.9656 127.843 41.2323 128.344C41.4989 128.835 41.8563 129.213 42.3043 129.48C42.7523 129.736 43.2483 129.864 43.7923 129.864C44.3363 129.864 44.8323 129.736 45.2803 129.48C45.7389 129.213 46.1016 128.835 46.3683 128.344C46.6349 127.843 46.7683 127.261 46.7683 126.6ZM50.1568 126.6C50.1568 125.693 50.3381 124.904 50.7008 124.232C51.0634 123.549 51.5648 123.021 52.2048 122.648C52.8554 122.275 53.5968 122.088 54.4288 122.088C55.5061 122.088 56.3914 122.349 57.0848 122.872C57.7888 123.395 58.2528 124.12 58.4768 125.048H56.9088C56.7594 124.515 56.4661 124.093 56.0288 123.784C55.6021 123.475 55.0688 123.32 54.4288 123.32C53.5968 123.32 52.9248 123.608 52.4128 124.184C51.9008 124.749 51.6448 125.555 51.6448 126.6C51.6448 127.656 51.9008 128.472 52.4128 129.048C52.9248 129.624 53.5968 129.912 54.4288 129.912C55.0688 129.912 55.6021 129.763 56.0288 129.464C56.4554 129.165 56.7488 128.739 56.9088 128.184H58.4768C58.2421 129.08 57.7728 129.8 57.0688 130.344C56.3648 130.877 55.4848 131.144 54.4288 131.144C53.5968 131.144 52.8554 130.957 52.2048 130.584C51.5648 130.211 51.0634 129.683 50.7008 129C50.3381 128.317 50.1568 127.517 50.1568 126.6ZM62.1955 123.432V128.6C62.1955 129.027 62.2862 129.331 62.4675 129.512C62.6488 129.683 62.9635 129.768 63.4115 129.768H64.4835V131H63.1715C62.3608 131 61.7528 130.813 61.3475 130.44C60.9422 130.067 60.7395 129.453 60.7395 128.6V123.432H59.6035V122.232H60.7395V120.024H62.1955V122.232H64.4835V123.432H62.1955ZM7.536 154.848V156.032H2.688V159.792H6.624V160.976H2.688V166H1.232V154.848H7.536ZM15.8865 163.52H11.0225L10.1265 166H8.5905L12.6225 154.912H14.3025L18.3185 166H16.7825L15.8865 163.52ZM15.4705 162.336L13.4545 156.704L11.4385 162.336H15.4705ZM29.0198 168.112L26.7958 165.888C26.2518 166.037 25.6971 166.112 25.1318 166.112C24.0971 166.112 23.1531 165.872 22.2998 165.392C21.4464 164.901 20.7691 164.224 20.2678 163.36C19.7771 162.485 19.5318 161.504 19.5318 160.416C19.5318 159.328 19.7771 158.352 20.2678 157.488C20.7691 156.613 21.4464 155.936 22.2998 155.456C23.1531 154.965 24.0971 154.72 25.1318 154.72C26.1771 154.72 27.1264 154.965 27.9798 155.456C28.8331 155.936 29.5051 156.608 29.9958 157.472C30.4864 158.336 30.7318 159.317 30.7318 160.416C30.7318 161.483 30.4971 162.443 30.0278 163.296C29.5584 164.149 28.9131 164.821 28.0918 165.312L30.9078 168.112H29.0198ZM21.0198 160.416C21.0198 161.301 21.1958 162.08 21.5478 162.752C21.9104 163.424 22.4011 163.941 23.0198 164.304C23.6491 164.667 24.3531 164.848 25.1318 164.848C25.9104 164.848 26.6091 164.667 27.2278 164.304C27.8571 163.941 28.3478 163.424 28.6998 162.752C29.0624 162.08 29.2438 161.301 29.2438 160.416C29.2438 159.52 29.0624 158.741 28.6998 158.08C28.3478 157.408 27.8624 156.891 27.2438 156.528C26.6251 156.165 25.9211 155.984 25.1318 155.984C24.3424 155.984 23.6384 156.165 23.0198 156.528C22.4011 156.891 21.9104 157.408 21.5478 158.08C21.1958 158.741 21.0198 159.52 21.0198 160.416Z" fill="#22343D"/>
<path d="M8.72 22L5.52 16.44H3.78V22H1.5V8.1H6.3C7.36667 8.1 8.26667 8.28667 9 8.66C9.74667 9.03333 10.3 9.53333 10.66 10.16C11.0333 10.7867 11.22 11.4867 11.22 12.26C11.22 13.1667 10.9533 13.9933 10.42 14.74C9.9 15.4733 9.09333 15.9733 8 16.24L11.44 22H8.72ZM3.78 14.62H6.3C7.15333 14.62 7.79333 14.4067 8.22 13.98C8.66 13.5533 8.88 12.98 8.88 12.26C8.88 11.54 8.66667 10.98 8.24 10.58C7.81333 10.1667 7.16667 9.96 6.3 9.96H3.78V14.62ZM24.2367 16.22C24.2367 16.6333 24.2101 17.0067 24.1567 17.34H15.7367C15.8034 18.22 16.1301 18.9267 16.7167 19.46C17.3034 19.9933 18.0234 20.26 18.8767 20.26C20.1034 20.26 20.9701 19.7467 21.4767 18.72H23.9367C23.6034 19.7333 22.9967 20.5667 22.1167 21.22C21.2501 21.86 20.1701 22.18 18.8767 22.18C17.8234 22.18 16.8767 21.9467 16.0367 21.48C15.2101 21 14.5567 20.3333 14.0767 19.48C13.6101 18.6133 13.3767 17.6133 13.3767 16.48C13.3767 15.3467 13.6034 14.3533 14.0567 13.5C14.5234 12.6333 15.1701 11.9667 15.9967 11.5C16.8367 11.0333 17.7967 10.8 18.8767 10.8C19.9167 10.8 20.8434 11.0267 21.6567 11.48C22.4701 11.9333 23.1034 12.5733 23.5567 13.4C24.0101 14.2133 24.2367 15.1533 24.2367 16.22ZM21.8567 15.5C21.8434 14.66 21.5434 13.9867 20.9567 13.48C20.3701 12.9733 19.6434 12.72 18.7767 12.72C17.9901 12.72 17.3167 12.9733 16.7567 13.48C16.1967 13.9733 15.8634 14.6467 15.7567 15.5H21.8567ZM30.4805 22.18C29.6138 22.18 28.8338 22.0267 28.1405 21.72C27.4605 21.4 26.9205 20.9733 26.5205 20.44C26.1205 19.8933 25.9071 19.2867 25.8805 18.62H28.2405C28.2805 19.0867 28.5005 19.48 28.9005 19.8C29.3138 20.1067 29.8271 20.26 30.4405 20.26C31.0805 20.26 31.5738 20.14 31.9205 19.9C32.2805 19.6467 32.4605 19.3267 32.4605 18.94C32.4605 18.5267 32.2605 18.22 31.8605 18.02C31.4738 17.82 30.8538 17.6 30.0005 17.36C29.1738 17.1333 28.5005 16.9133 27.9805 16.7C27.4605 16.4867 27.0071 16.16 26.6205 15.72C26.2471 15.28 26.0605 14.7 26.0605 13.98C26.0605 13.3933 26.2338 12.86 26.5805 12.38C26.9271 11.8867 27.4205 11.5 28.0605 11.22C28.7138 10.94 29.4605 10.8 30.3005 10.8C31.5538 10.8 32.5605 11.12 33.3205 11.76C34.0938 12.3867 34.5071 13.2467 34.5605 14.34H32.2805C32.2405 13.8467 32.0405 13.4533 31.6805 13.16C31.3205 12.8667 30.8338 12.72 30.2205 12.72C29.6205 12.72 29.1605 12.8333 28.8405 13.06C28.5205 13.2867 28.3605 13.5867 28.3605 13.96C28.3605 14.2533 28.4671 14.5 28.6805 14.7C28.8938 14.9 29.1538 15.06 29.4605 15.18C29.7671 15.2867 30.2205 15.4267 30.8205 15.6C31.6205 15.8133 32.2738 16.0333 32.7805 16.26C33.3005 16.4733 33.7471 16.7933 34.1205 17.22C34.4938 17.6467 34.6871 18.2133 34.7005 18.92C34.7005 19.5467 34.5271 20.1067 34.1805 20.6C33.8338 21.0933 33.3405 21.48 32.7005 21.76C32.0738 22.04 31.3338 22.18 30.4805 22.18ZM41.9441 22.18C40.9041 22.18 39.9641 21.9467 39.1241 21.48C38.2841 21 37.6241 20.3333 37.1441 19.48C36.6641 18.6133 36.4241 17.6133 36.4241 16.48C36.4241 15.36 36.6707 14.3667 37.1641 13.5C37.6574 12.6333 38.3307 11.9667 39.1841 11.5C40.0374 11.0333 40.9907 10.8 42.0441 10.8C43.0974 10.8 44.0507 11.0333 44.9041 11.5C45.7574 11.9667 46.4307 12.6333 46.9241 13.5C47.4174 14.3667 47.6641 15.36 47.6641 16.48C47.6641 17.6 47.4107 18.5933 46.9041 19.46C46.3974 20.3267 45.7041 21 44.8241 21.48C43.9574 21.9467 42.9974 22.18 41.9441 22.18ZM41.9441 20.2C42.5307 20.2 43.0774 20.06 43.5841 19.78C44.1041 19.5 44.5241 19.08 44.8441 18.52C45.1641 17.96 45.3241 17.28 45.3241 16.48C45.3241 15.68 45.1707 15.0067 44.8641 14.46C44.5574 13.9 44.1507 13.48 43.6441 13.2C43.1374 12.92 42.5907 12.78 42.0041 12.78C41.4174 12.78 40.8707 12.92 40.3641 13.2C39.8707 13.48 39.4774 13.9 39.1841 14.46C38.8907 15.0067 38.7441 15.68 38.7441 16.48C38.7441 17.6667 39.0441 18.5867 39.6441 19.24C40.2574 19.88 41.0241 20.2 41.9441 20.2ZM59.898 10.98V22H57.618V20.7C57.258 21.1533 56.7846 21.5133 56.198 21.78C55.6246 22.0333 55.0113 22.16 54.358 22.16C53.4913 22.16 52.7113 21.98 52.018 21.62C51.338 21.26 50.798 20.7267 50.398 20.02C50.0113 19.3133 49.818 18.46 49.818 17.46V10.98H52.078V17.12C52.078 18.1067 52.3246 18.8667 52.818 19.4C53.3113 19.92 53.9846 20.18 54.838 20.18C55.6913 20.18 56.3646 19.92 56.858 19.4C57.3646 18.8667 57.618 18.1067 57.618 17.12V10.98H59.898ZM65.1863 12.58C65.5196 12.02 65.9596 11.5867 66.5063 11.28C67.0663 10.96 67.7263 10.8 68.4863 10.8V13.16H67.9063C67.0129 13.16 66.3329 13.3867 65.8663 13.84C65.4129 14.2933 65.1863 15.08 65.1863 16.2V22H62.9063V10.98H65.1863V12.58ZM69.822 16.48C69.822 15.3467 70.0487 14.3533 70.502 13.5C70.9687 12.6333 71.6087 11.9667 72.422 11.5C73.2354 11.0333 74.1687 10.8 75.222 10.8C76.5554 10.8 77.6554 11.12 78.522 11.76C79.402 12.3867 79.9954 13.2867 80.302 14.46H77.842C77.642 13.9133 77.322 13.4867 76.882 13.18C76.442 12.8733 75.8887 12.72 75.222 12.72C74.2887 12.72 73.542 13.0533 72.982 13.72C72.4354 14.3733 72.162 15.2933 72.162 16.48C72.162 17.6667 72.4354 18.5933 72.982 19.26C73.542 19.9267 74.2887 20.26 75.222 20.26C76.542 20.26 77.4154 19.68 77.842 18.52H80.302C79.982 19.64 79.382 20.5333 78.502 21.2C77.622 21.8533 76.5287 22.18 75.222 22.18C74.1687 22.18 73.2354 21.9467 72.422 21.48C71.6087 21 70.9687 20.3333 70.502 19.48C70.0487 18.6133 69.822 17.6133 69.822 16.48ZM92.6742 16.22C92.6742 16.6333 92.6476 17.0067 92.5942 17.34H84.1742C84.2409 18.22 84.5676 18.9267 85.1542 19.46C85.7409 19.9933 86.4609 20.26 87.3142 20.26C88.5409 20.26 89.4076 19.7467 89.9142 18.72H92.3742C92.0409 19.7333 91.4342 20.5667 90.5542 21.22C89.6876 21.86 88.6076 22.18 87.3142 22.18C86.2609 22.18 85.3142 21.9467 84.4742 21.48C83.6476 21 82.9942 20.3333 82.5142 19.48C82.0476 18.6133 81.8142 17.6133 81.8142 16.48C81.8142 15.3467 82.0409 14.3533 82.4942 13.5C82.9609 12.6333 83.6076 11.9667 84.4342 11.5C85.2742 11.0333 86.2342 10.8 87.3142 10.8C88.3542 10.8 89.2809 11.0267 90.0942 11.48C90.9076 11.9333 91.5409 12.5733 91.9942 13.4C92.4476 14.2133 92.6742 15.1533 92.6742 16.22ZM90.2942 15.5C90.2809 14.66 89.9809 13.9867 89.3942 13.48C88.8076 12.9733 88.0809 12.72 87.2142 12.72C86.4276 12.72 85.7542 12.9733 85.1942 13.48C84.6342 13.9733 84.3009 14.6467 84.1942 15.5H90.2942Z" fill="#22343D"/>
</svg>
